<mxfile host="65bd71144e">
    <diagram id="SCZE51X0OGVQTtKhtHNl" name="Page-1">
        <mxGraphModel dx="2362" dy="2232" grid="1" gridSize="10" guides="1" tooltips="1" connect="1" arrows="1" fold="1" page="1" pageScale="1" pageWidth="827" pageHeight="1169" math="0" shadow="0">
            <root>
                <mxCell id="0"/>
                <mxCell id="1" parent="0"/>
                <mxCell id="54" style="edgeStyle=orthogonalEdgeStyle;curved=1;html=1;entryX=0.5;entryY=1;entryDx=0;entryDy=0;fontFamily=Comic Sans MS;fontColor=#fafafa;" edge="1" parent="1" source="2" target="4">
                    <mxGeometry relative="1" as="geometry"/>
                </mxCell>
                <mxCell id="2" value="START" style="ellipse;whiteSpace=wrap;html=1;fontFamily=Comic Sans MS;" vertex="1" parent="1">
                    <mxGeometry x="-230" y="-100" width="80" height="70" as="geometry"/>
                </mxCell>
                <mxCell id="4" value="LIVE" style="ellipse;whiteSpace=wrap;html=1;fontFamily=Comic Sans MS;" vertex="1" parent="1">
                    <mxGeometry x="-230" y="-210" width="80" height="75" as="geometry"/>
                </mxCell>
                <mxCell id="31" style="edgeStyle=orthogonalEdgeStyle;html=1;entryX=0.25;entryY=0;entryDx=0;entryDy=0;fontFamily=Comic Sans MS;fontColor=#fafafa;" edge="1" parent="1" source="5" target="6">
                    <mxGeometry relative="1" as="geometry"/>
                </mxCell>
                <mxCell id="33" style="edgeStyle=orthogonalEdgeStyle;html=1;exitX=0;exitY=0.5;exitDx=0;exitDy=0;entryX=0.5;entryY=0;entryDx=0;entryDy=0;fontFamily=Comic Sans MS;fontColor=#fafafa;" edge="1" parent="1" source="5" target="13">
                    <mxGeometry relative="1" as="geometry"/>
                </mxCell>
                <mxCell id="5" value="if ( f_name, l_name and email&amp;nbsp;!= 0)&amp;nbsp;" style="rhombus;whiteSpace=wrap;html=1;fontFamily=Comic Sans MS;" vertex="1" parent="1">
                    <mxGeometry x="155" y="40" width="170" height="170" as="geometry"/>
                </mxCell>
                <mxCell id="35" style="edgeStyle=orthogonalEdgeStyle;html=1;exitX=0.5;exitY=0;exitDx=0;exitDy=0;entryX=1;entryY=0.5;entryDx=0;entryDy=0;fontFamily=Comic Sans MS;fontColor=#fafafa;" edge="1" parent="1" source="6" target="20">
                    <mxGeometry relative="1" as="geometry">
                        <Array as="points">
                            <mxPoint x="540" y="-115"/>
                        </Array>
                    </mxGeometry>
                </mxCell>
                <mxCell id="6" value="" style="rounded=0;whiteSpace=wrap;html=1;fontFamily=Comic Sans MS;" vertex="1" parent="1">
                    <mxGeometry x="410" y="240" width="260" height="130" as="geometry"/>
                </mxCell>
                <mxCell id="9" value="NO" style="text;html=1;align=center;verticalAlign=middle;resizable=0;points=[];autosize=1;strokeColor=none;fillColor=none;fontFamily=Comic Sans MS;" vertex="1" parent="1">
                    <mxGeometry x="350" y="85" width="40" height="30" as="geometry"/>
                </mxCell>
                <mxCell id="10" value="&lt;meta charset=&quot;utf-8&quot;&gt;&lt;span style=&quot;color: rgb(240, 240, 240); font-size: 12px; font-style: normal; font-variant-ligatures: normal; font-variant-caps: normal; font-weight: 400; letter-spacing: normal; orphans: 2; text-align: center; text-indent: 0px; text-transform: none; widows: 2; word-spacing: 0px; -webkit-text-stroke-width: 0px; background-color: rgb(42, 37, 47); text-decoration-thickness: initial; text-decoration-style: initial; text-decoration-color: initial; float: none; display: inline !important;&quot;&gt;You must include a first name, last name and email&lt;/span&gt;" style="shape=process;whiteSpace=wrap;html=1;backgroundOutline=1;size=0.16666666666666666;fontFamily=Comic Sans MS;" vertex="1" parent="1">
                    <mxGeometry x="450" y="260" width="180" height="90" as="geometry"/>
                </mxCell>
                <mxCell id="12" style="edgeStyle=orthogonalEdgeStyle;html=1;entryX=1;entryY=0.383;entryDx=0;entryDy=0;entryPerimeter=0;curved=1;fontFamily=Comic Sans MS;" edge="1" parent="1" target="10">
                    <mxGeometry relative="1" as="geometry">
                        <mxPoint x="760" y="175" as="sourcePoint"/>
                        <mxPoint x="720" y="230" as="targetPoint"/>
                        <Array as="points">
                            <mxPoint x="760" y="294"/>
                        </Array>
                    </mxGeometry>
                </mxCell>
                <mxCell id="11" value="POPUP" style="text;html=1;align=center;verticalAlign=middle;resizable=0;points=[];autosize=1;strokeColor=none;fillColor=none;fontFamily=Comic Sans MS;" vertex="1" parent="1">
                    <mxGeometry x="730" y="140" width="60" height="30" as="geometry"/>
                </mxCell>
                <mxCell id="43" style="edgeStyle=none;html=1;exitX=0.5;exitY=1;exitDx=0;exitDy=0;entryX=0.5;entryY=0;entryDx=0;entryDy=0;fontFamily=Comic Sans MS;fontColor=#fafafa;" edge="1" parent="1" source="13" target="37">
                    <mxGeometry relative="1" as="geometry"/>
                </mxCell>
                <mxCell id="13" value="CONTACT DETAILS&amp;nbsp;&lt;br&gt;SAVED" style="rounded=0;whiteSpace=wrap;html=1;fontFamily=Comic Sans MS;" vertex="1" parent="1">
                    <mxGeometry x="-240" y="190" width="180" height="90" as="geometry"/>
                </mxCell>
                <mxCell id="15" value="" style="shape=datastore;whiteSpace=wrap;html=1;fontStyle=1;spacingLeft=0;fontFamily=Comic Sans MS;" vertex="1" parent="1">
                    <mxGeometry x="-413" y="275" width="60" height="60" as="geometry"/>
                </mxCell>
                <mxCell id="22" style="edgeStyle=none;html=1;exitX=1;exitY=0.5;exitDx=0;exitDy=0;entryX=0;entryY=0.5;entryDx=0;entryDy=0;fontFamily=Comic Sans MS;" edge="1" parent="1" source="19" target="20">
                    <mxGeometry relative="1" as="geometry"/>
                </mxCell>
                <mxCell id="19" value="CLICK = NEW CONTACT" style="shape=parallelogram;perimeter=parallelogramPerimeter;whiteSpace=wrap;html=1;fixedSize=1;fontFamily=Comic Sans MS;" vertex="1" parent="1">
                    <mxGeometry x="-10" y="-145" width="120" height="60" as="geometry"/>
                </mxCell>
                <mxCell id="36" style="edgeStyle=orthogonalEdgeStyle;html=1;entryX=0.5;entryY=0;entryDx=0;entryDy=0;fontFamily=Comic Sans MS;fontColor=#fafafa;" edge="1" parent="1" source="20" target="5">
                    <mxGeometry relative="1" as="geometry"/>
                </mxCell>
                <mxCell id="20" value="i/p&lt;br&gt;f_name&lt;br&gt;l_name&lt;br&gt;email" style="shape=parallelogram;perimeter=parallelogramPerimeter;whiteSpace=wrap;html=1;fixedSize=1;fontFamily=Comic Sans MS;" vertex="1" parent="1">
                    <mxGeometry x="180" y="-145" width="120" height="60" as="geometry"/>
                </mxCell>
                <mxCell id="30" value="yes" style="text;html=1;align=center;verticalAlign=middle;resizable=0;points=[];autosize=1;strokeColor=none;fillColor=none;fontFamily=Comic Sans MS;fontColor=#fafafa;" vertex="1" parent="1">
                    <mxGeometry x="20" y="85" width="40" height="30" as="geometry"/>
                </mxCell>
                <mxCell id="69" style="edgeStyle=orthogonalEdgeStyle;html=1;exitX=0.75;exitY=1;exitDx=0;exitDy=0;fontFamily=Comic Sans MS;fontColor=#fafafa;" edge="1" parent="1" source="37">
                    <mxGeometry relative="1" as="geometry">
                        <mxPoint x="-80" y="580" as="targetPoint"/>
                    </mxGeometry>
                </mxCell>
                <mxCell id="70" style="edgeStyle=orthogonalEdgeStyle;html=1;entryX=0;entryY=0.5;entryDx=0;entryDy=0;fontFamily=Comic Sans MS;fontColor=#fafafa;" edge="1" parent="1" source="37" target="56">
                    <mxGeometry relative="1" as="geometry"/>
                </mxCell>
                <mxCell id="37" value="CONTACTS" style="swimlane;whiteSpace=wrap;html=1;fontFamily=Comic Sans MS;fontColor=#fafafa;verticalAlign=middle;" vertex="1" parent="1">
                    <mxGeometry x="-210" y="300" width="120" height="120" as="geometry">
                        <mxRectangle x="-200" y="300" width="110" height="30" as="alternateBounds"/>
                    </mxGeometry>
                </mxCell>
                <mxCell id="38" value="f_name&lt;br&gt;l_name&lt;br&gt;email&lt;br&gt;actions" style="text;html=1;align=center;verticalAlign=middle;resizable=0;points=[];autosize=1;strokeColor=none;fillColor=none;fontFamily=Comic Sans MS;fontColor=#fafafa;" vertex="1" parent="37">
                    <mxGeometry x="25" y="40" width="70" height="70" as="geometry"/>
                </mxCell>
                <mxCell id="42" style="html=1;entryX=1;entryY=0.5;entryDx=0;entryDy=0;fontFamily=Comic Sans MS;fontColor=#fafafa;" edge="1" parent="1" target="15">
                    <mxGeometry relative="1" as="geometry">
                        <mxPoint x="-303" y="305" as="sourcePoint"/>
                    </mxGeometry>
                </mxCell>
                <mxCell id="39" value="" style="shape=curlyBracket;whiteSpace=wrap;html=1;rounded=1;flipH=1;labelPosition=right;verticalLabelPosition=middle;align=left;verticalAlign=middle;fontFamily=Comic Sans MS;fontColor=#fafafa;direction=west;size=0.5;" vertex="1" parent="1">
                    <mxGeometry x="-310" y="190" width="20" height="230" as="geometry"/>
                </mxCell>
                <mxCell id="48" style="edgeStyle=orthogonalEdgeStyle;curved=1;html=1;entryX=0.5;entryY=1;entryDx=0;entryDy=0;fontFamily=Comic Sans MS;fontColor=#fafafa;" edge="1" parent="1" source="45" target="37">
                    <mxGeometry relative="1" as="geometry"/>
                </mxCell>
                <mxCell id="45" value="2ND VIEW" style="text;html=1;align=center;verticalAlign=middle;resizable=0;points=[];autosize=1;strokeColor=none;fillColor=none;fontFamily=Comic Sans MS;fontColor=#fafafa;" vertex="1" parent="1">
                    <mxGeometry x="-345" y="470" width="90" height="30" as="geometry"/>
                </mxCell>
                <mxCell id="47" style="edgeStyle=orthogonalEdgeStyle;html=1;fontFamily=Comic Sans MS;fontColor=#fafafa;curved=1;" edge="1" parent="1" source="46" target="13">
                    <mxGeometry relative="1" as="geometry">
                        <Array as="points">
                            <mxPoint x="-320" y="140"/>
                            <mxPoint x="-210" y="140"/>
                        </Array>
                    </mxGeometry>
                </mxCell>
                <mxCell id="46" value="1ST VIEW" style="text;html=1;align=center;verticalAlign=middle;resizable=0;points=[];autosize=1;strokeColor=none;fillColor=none;fontFamily=Comic Sans MS;fontColor=#fafafa;" vertex="1" parent="1">
                    <mxGeometry x="-360" y="65" width="80" height="30" as="geometry"/>
                </mxCell>
                <mxCell id="49" value="START SERVER&amp;nbsp;" style="text;html=1;align=center;verticalAlign=middle;resizable=0;points=[];autosize=1;strokeColor=none;fillColor=none;fontFamily=Comic Sans MS;fontColor=#fafafa;" vertex="1" parent="1">
                    <mxGeometry x="-400" y="-155" width="120" height="30" as="geometry"/>
                </mxCell>
                <mxCell id="53" style="edgeStyle=orthogonalEdgeStyle;curved=1;html=1;entryX=0;entryY=0.5;entryDx=0;entryDy=0;fontFamily=Comic Sans MS;fontColor=#fafafa;" edge="1" parent="1" source="50" target="19">
                    <mxGeometry relative="1" as="geometry"/>
                </mxCell>
                <mxCell id="50" value="" style="shape=curlyBracket;whiteSpace=wrap;html=1;rounded=1;flipH=1;labelPosition=right;verticalLabelPosition=middle;align=left;verticalAlign=middle;fontFamily=Comic Sans MS;fontColor=#fafafa;" vertex="1" parent="1">
                    <mxGeometry x="-120" y="-195" width="20" height="160" as="geometry"/>
                </mxCell>
                <mxCell id="55" value="RETURN" style="text;html=1;align=center;verticalAlign=middle;resizable=0;points=[];autosize=1;strokeColor=none;fillColor=none;fontFamily=Comic Sans MS;fontColor=#fafafa;" vertex="1" parent="1">
                    <mxGeometry x="555" y="35" width="70" height="30" as="geometry"/>
                </mxCell>
                <mxCell id="56" value="EXIT" style="ellipse;whiteSpace=wrap;html=1;fontFamily=Comic Sans MS;fontColor=#fafafa;" vertex="1" parent="1">
                    <mxGeometry x="180" y="460" width="120" height="80" as="geometry"/>
                </mxCell>
                <mxCell id="58" value="CONTACTS" style="swimlane;whiteSpace=wrap;html=1;fontFamily=Comic Sans MS;fontColor=#fafafa;verticalAlign=middle;" vertex="1" parent="1">
                    <mxGeometry x="-245" y="585" width="190" height="190" as="geometry">
                        <mxRectangle x="-200" y="300" width="110" height="30" as="alternateBounds"/>
                    </mxGeometry>
                </mxCell>
                <mxCell id="59" value="f_name&lt;br&gt;l_name&lt;br&gt;email&lt;br&gt;actions" style="text;html=1;align=center;verticalAlign=middle;resizable=0;points=[];autosize=1;strokeColor=none;fillColor=none;fontFamily=Comic Sans MS;fontColor=#fafafa;" vertex="1" parent="58">
                    <mxGeometry x="60" y="55" width="70" height="70" as="geometry"/>
                </mxCell>
                <mxCell id="66" value="" style="shape=curlyBracket;whiteSpace=wrap;html=1;rounded=1;labelPosition=left;verticalLabelPosition=middle;align=right;verticalAlign=middle;fontFamily=Comic Sans MS;fontColor=#fafafa;" vertex="1" parent="58">
                    <mxGeometry x="45" y="60" width="20" height="60" as="geometry"/>
                </mxCell>
                <mxCell id="64" style="edgeStyle=orthogonalEdgeStyle;html=1;entryX=0;entryY=0.5;entryDx=0;entryDy=0;fontFamily=Comic Sans MS;fontColor=#fafafa;" edge="1" parent="1" source="62" target="15">
                    <mxGeometry relative="1" as="geometry">
                        <Array as="points">
                            <mxPoint x="-480" y="680"/>
                            <mxPoint x="-480" y="305"/>
                        </Array>
                    </mxGeometry>
                </mxCell>
                <mxCell id="62" value="I/P&lt;br&gt;UPDATE&amp;nbsp;&lt;br&gt;DELETE" style="shape=parallelogram;perimeter=parallelogramPerimeter;whiteSpace=wrap;html=1;fixedSize=1;fontFamily=Comic Sans MS;fontColor=#fafafa;" vertex="1" parent="1">
                    <mxGeometry x="-428" y="650" width="120" height="60" as="geometry"/>
                </mxCell>
                <mxCell id="65" value="DATABASE" style="text;html=1;align=center;verticalAlign=middle;resizable=0;points=[];autosize=1;strokeColor=none;fillColor=none;fontFamily=Comic Sans MS;fontColor=#fafafa;fontStyle=1;" vertex="1" parent="1">
                    <mxGeometry x="-428" y="230" width="90" height="30" as="geometry"/>
                </mxCell>
                <mxCell id="67" style="edgeStyle=orthogonalEdgeStyle;html=1;fontFamily=Comic Sans MS;fontColor=#fafafa;" edge="1" parent="1" source="66">
                    <mxGeometry relative="1" as="geometry">
                        <mxPoint x="-300" y="675" as="targetPoint"/>
                    </mxGeometry>
                </mxCell>
                <mxCell id="71" value="&lt;h2&gt;&lt;u&gt;PROJECT&amp;nbsp; FLOWCHART&lt;/u&gt;&lt;/h2&gt;" style="text;html=1;align=center;verticalAlign=middle;resizable=0;points=[];autosize=1;strokeColor=none;fillColor=none;fontFamily=Comic Sans MS;fontColor=#fafafa;" vertex="1" parent="1">
                    <mxGeometry x="-400" y="-280" width="240" height="60" as="geometry"/>
                </mxCell>
            </root>
        </mxGraphModel>
    </diagram>
</mxfile>